<svg version="1.1" id="Layer_1" xmlns="http://www.w3.org/2000/svg" xmlns:xlink="http://www.w3.org/1999/xlink" x="0px" y="0px"
	 width="100%" viewBox="0 0 1026 547" enable-background="new 0 0 1026 547" xml:space="preserve">
<path fill="#2F3D5D" opacity="1.000000" stroke="none" 
	d="
M781.000000,548.000000 
	C520.666687,548.000000 260.833344,548.000000 1.000000,548.000000 
	C1.000000,365.666656 1.000000,183.333328 1.000000,1.000000 
	C343.000000,1.000000 685.000000,1.000000 1027.000000,1.000000 
	C1027.000000,183.333328 1027.000000,365.666656 1027.000000,548.000000 
	C945.166687,548.000000 863.333313,548.000000 781.000000,548.000000 
M679.645447,393.818542 
	C683.078003,389.459564 686.510559,385.100616 689.943115,380.741638 
	C689.322998,380.299042 688.702881,379.856415 688.082764,379.413818 
	C685.060608,384.280518 682.038452,389.147217 678.444153,394.153290 
	C677.882812,394.742462 677.321472,395.331604 676.760071,395.920746 
	C677.108337,396.142212 677.456543,396.363647 677.804749,396.585114 
	C678.198547,395.718475 678.592407,394.851807 679.645447,393.818542 
M623.914062,446.963104 
	C643.865479,433.953339 661.511780,418.485138 675.349792,398.975525 
	C670.776306,402.901062 666.827026,407.461914 662.606445,411.756256 
	C650.080383,424.501282 636.086670,435.423676 620.191711,444.948151 
	C606.199585,451.055206 592.565674,458.237274 578.140137,463.043427 
	C548.918213,472.779175 518.672302,476.817047 488.050873,471.935089 
	C469.556274,468.986511 451.423431,463.764191 433.134491,459.535645 
	C430.158875,458.847687 427.216705,458.014862 424.259094,457.248993 
	C424.143066,457.687317 424.027008,458.125641 423.910980,458.563965 
	C424.583038,459.026733 425.229370,459.533295 425.930908,459.945923 
	C449.172607,473.615784 474.748016,479.319214 501.247406,480.692169 
	C532.430481,482.307800 562.714417,477.137421 591.343506,464.442749 
	C602.371582,459.552673 612.662476,453.000061 623.914062,446.963104 
M351.189087,166.019791 
	C345.304413,177.871140 339.394531,189.710205 333.599182,201.605072 
	C333.259399,202.302460 333.844177,203.450272 333.983856,204.612534 
	C333.983856,204.612534 333.972260,205.061432 333.055389,205.260254 
	C330.077362,205.393021 327.099548,205.635681 324.121307,205.640686 
	C304.868195,205.673019 285.614990,205.665985 266.361877,205.635315 
	C263.936493,205.631439 261.486328,205.381516 261.653961,209.770737 
	C261.547272,210.594391 261.347870,211.417953 261.347198,212.241699 
	C261.317596,249.534622 261.292999,286.827576 261.339935,324.120422 
	C261.341675,325.501343 262.061371,326.881378 263.331909,328.455505 
	C278.883148,328.492645 294.434662,328.483490 309.985443,328.590515 
	C315.926270,328.631409 321.865295,328.938385 327.785217,329.937653 
	C328.126495,331.561920 328.326508,333.231445 328.830048,334.803741 
	C337.024139,360.391083 349.628052,383.729126 368.076080,403.151337 
	C422.179779,460.112030 488.273041,480.532959 564.466675,461.684143 
	C626.733093,446.280579 669.930969,406.392456 696.512878,348.358887 
	C699.328247,342.212219 700.928650,335.509003 703.942078,328.816315 
	C707.231384,328.654022 710.520752,328.491699 714.320312,328.304199 
	C714.320312,313.713562 714.320312,299.450623 714.960999,285.024323 
	C715.384399,284.905853 715.807739,284.787415 716.583557,285.296631 
	C717.877625,288.426208 719.171692,291.555817 720.388733,295.433746 
	C723.744263,303.042084 727.099792,310.650391 730.757874,318.848053 
	C731.018433,319.456970 731.278992,320.065918 731.412720,321.268768 
	C731.824829,321.916748 732.236938,322.564697 732.883972,323.819519 
	C733.111572,324.429047 733.339111,325.038574 733.497559,326.266571 
	C733.952881,326.876404 734.408203,327.486206 735.663879,328.351837 
	C740.156860,328.424622 744.689026,328.155151 749.132202,328.663391 
	C753.876526,329.206085 755.928162,327.039886 757.545044,322.959015 
	C762.143860,311.352142 767.066223,299.873077 771.903687,288.361542 
	C772.559875,286.800018 773.458374,285.340302 774.244690,283.833466 
	C774.689514,283.937439 775.134399,284.041443 775.579224,284.145416 
	C775.579224,298.788361 775.579224,313.431305 775.579224,328.123047 
	C786.676453,328.123047 797.042114,328.123047 807.421875,328.123047 
	C807.421875,287.121826 807.421875,246.584030 807.421875,205.657104 
	C799.271484,205.657104 791.462830,205.836212 783.669006,205.573151 
	C780.328796,205.460419 778.718994,206.522217 777.312256,209.600861 
	C767.556396,230.952087 757.574951,252.200363 747.634155,273.466827 
	C746.933105,274.966522 745.978149,276.347534 744.798950,278.371277 
	C743.740112,276.621399 743.150574,275.826874 742.743530,274.947937 
	C733.576843,255.157227 724.157654,235.476257 715.432373,215.492401 
	C712.510986,208.801483 709.446472,203.964447 701.031067,204.688553 
	C699.949158,201.716354 699.052551,198.660797 697.758240,195.784210 
	C667.958252,129.555740 617.994202,88.268097 545.965637,76.393944 
	C497.087646,68.336220 451.214569,78.401398 409.482208,105.797409 
	C385.705292,121.406227 366.047638,140.915466 351.189087,166.019791 
M203.860321,217.523224 
	C203.860321,232.529755 203.860321,247.536270 203.860321,262.542816 
	C203.377640,262.610901 202.894974,262.678986 202.412292,262.747070 
	C201.811035,262.034363 201.145325,261.366150 200.617966,260.602448 
	C188.884201,243.609528 177.191681,226.588013 165.400131,209.635361 
	C164.334473,208.103271 162.690659,205.932159 161.244614,205.875885 
	C152.303528,205.528000 143.342178,205.701080 134.433060,205.701080 
	C134.433060,246.850113 134.433060,287.420685 134.433060,328.152222 
	C145.122971,328.152222 155.488602,328.152222 166.528015,328.152222 
	C166.528015,309.059021 166.528015,290.392303 166.528015,271.725616 
	C168.886490,272.745483 170.184692,274.122284 171.242096,275.664307 
	C182.449844,292.008606 193.596375,308.394958 204.839447,324.714874 
	C205.819763,326.137848 207.330566,328.176788 208.654617,328.223053 
	C217.572708,328.534760 226.506897,328.385437 235.512634,328.385437 
	C235.512634,287.175262 235.512634,246.632874 235.512634,205.888000 
	C224.891006,205.888000 214.619659,205.888000 203.860107,205.888000 
	C203.860107,209.599762 203.860107,213.067627 203.860321,217.523224 
M919.209167,313.493103 
	C919.209167,308.031433 919.209167,302.569794 919.209167,296.508759 
	C917.044922,296.508759 915.261047,296.507660 913.477173,296.508881 
	C900.478638,296.517670 887.477844,296.678101 874.482178,296.491058 
	C862.876160,296.323975 864.508057,299.146881 864.313293,285.692200 
	C864.266296,282.448700 865.341187,281.322296 868.613037,281.374817 
	C878.609375,281.535400 888.609924,281.431183 898.608826,281.430084 
	C901.229919,281.429810 903.851074,281.430054 906.624695,281.430054 
	C906.624695,270.973328 906.624695,261.251038 906.624695,251.023010 
	C892.513550,251.023010 878.753906,251.023010 864.670715,251.023010 
	C864.670715,246.459869 864.670715,242.406906 864.670715,237.755096 
	C882.876221,237.755096 900.775330,237.755096 918.899231,237.755096 
	C918.899231,226.766205 918.899231,216.377151 918.899231,206.044495 
	C889.853149,206.044495 861.132812,206.044495 832.398865,206.044495 
	C832.398865,246.919098 832.398865,287.361908 832.398865,328.195007 
	C861.353821,328.195007 890.059814,328.195007 919.207581,328.195007 
	C919.207581,323.418945 919.207581,318.951660 919.209167,313.493103 
M691.513428,376.495636 
	C691.513428,376.495636 691.486267,376.500671 691.513428,376.495636 
z"/>
<path fill="#D5DCE6" opacity="1.000000" stroke="none" 
	d="
M733.566650,325.648132 
	C733.339111,325.038574 733.111572,324.429047 732.789551,323.223328 
	C732.309937,321.976349 731.924683,321.325592 731.539490,320.674835 
	C731.278992,320.065918 731.018433,319.456970 730.649048,318.184998 
	C727.182068,309.909790 723.823914,302.297607 720.465759,294.685425 
	C719.171692,291.555817 717.877625,288.426208 716.427979,284.686615 
	C715.722961,283.238861 715.173462,282.401123 713.837402,280.364197 
	C714.097351,282.960754 714.208801,284.074219 714.320312,285.187683 
	C714.320312,299.450623 714.320312,313.713562 714.320312,328.304199 
	C710.520752,328.491699 707.231384,328.654022 703.069336,328.819214 
	C698.876648,328.826447 695.556824,328.830780 691.776123,328.755981 
	C688.567444,328.647705 685.819641,328.618530 682.993347,328.152100 
	C682.819763,325.723450 682.643188,323.732056 682.641602,321.740570 
	C682.610535,283.131683 682.599915,244.522781 683.031189,205.753967 
	C683.759583,205.452545 684.041992,205.311035 684.722473,205.276382 
	C687.039734,205.428970 688.958984,205.474701 691.339233,205.601440 
	C694.963928,205.566269 698.127563,205.450073 701.291199,205.333893 
	C709.446472,203.964447 712.510986,208.801483 715.432373,215.492401 
	C724.157654,235.476257 733.576843,255.157227 742.743530,274.947937 
	C743.150574,275.826874 743.740112,276.621399 744.798950,278.371277 
	C745.978149,276.347534 746.933105,274.966522 747.634155,273.466827 
	C757.574951,252.200363 767.556396,230.952087 777.312256,209.600861 
	C778.718994,206.522217 780.328796,205.460419 783.669006,205.573151 
	C791.462830,205.836212 799.271484,205.657104 807.421875,205.657104 
	C807.421875,246.584030 807.421875,287.121826 807.421875,328.123047 
	C797.042114,328.123047 786.676453,328.123047 775.579224,328.123047 
	C775.579224,313.431305 775.579224,298.788361 775.579224,284.145416 
	C775.134399,284.041443 774.689514,283.937439 774.244690,283.833466 
	C773.458374,285.340302 772.559875,286.800018 771.903687,288.361542 
	C767.066223,299.873077 762.143860,311.352142 757.545044,322.959015 
	C755.928162,327.039886 753.876526,329.206085 749.132202,328.663391 
	C744.689026,328.155151 740.156860,328.424622 735.214966,327.940613 
	C734.366333,326.902283 733.966492,326.275208 733.566650,325.648132 
z"/>
<path fill="#D5DCE6" opacity="1.000000" stroke="none" 
	d="
M203.860214,217.029358 
	C203.860107,213.067627 203.860107,209.599762 203.860107,205.888000 
	C214.619659,205.888000 224.891006,205.888000 235.512634,205.888000 
	C235.512634,246.632874 235.512634,287.175262 235.512634,328.385437 
	C226.506897,328.385437 217.572708,328.534760 208.654617,328.223053 
	C207.330566,328.176788 205.819763,326.137848 204.839447,324.714874 
	C193.596375,308.394958 182.449844,292.008606 171.242096,275.664307 
	C170.184692,274.122284 168.886490,272.745483 166.528015,271.725616 
	C166.528015,290.392303 166.528015,309.059021 166.528015,328.152222 
	C155.488602,328.152222 145.122971,328.152222 134.433060,328.152222 
	C134.433060,287.420685 134.433060,246.850113 134.433060,205.701080 
	C143.342178,205.701080 152.303528,205.528000 161.244614,205.875885 
	C162.690659,205.932159 164.334473,208.103271 165.400131,209.635361 
	C177.191681,226.588013 188.884201,243.609528 200.617966,260.602448 
	C201.145325,261.366150 201.811035,262.034363 202.412292,262.747070 
	C202.894974,262.678986 203.377640,262.610901 203.860321,262.542816 
	C203.860321,247.536270 203.860321,232.529755 203.860214,217.029358 
z"/>
<path fill="#D5DCE6" opacity="1.000000" stroke="none" 
	d="
M919.208374,313.988739 
	C919.207581,318.951660 919.207581,323.418945 919.207581,328.195007 
	C890.059814,328.195007 861.353821,328.195007 832.398865,328.195007 
	C832.398865,287.361908 832.398865,246.919098 832.398865,206.044495 
	C861.132812,206.044495 889.853149,206.044495 918.899231,206.044495 
	C918.899231,216.377151 918.899231,226.766205 918.899231,237.755096 
	C900.775330,237.755096 882.876221,237.755096 864.670715,237.755096 
	C864.670715,242.406906 864.670715,246.459869 864.670715,251.023010 
	C878.753906,251.023010 892.513550,251.023010 906.624695,251.023010 
	C906.624695,261.251038 906.624695,270.973328 906.624695,281.430054 
	C903.851074,281.430054 901.229919,281.429810 898.608826,281.430084 
	C888.609924,281.431183 878.609375,281.535400 868.613037,281.374817 
	C865.341187,281.322296 864.266296,282.448700 864.313293,285.692200 
	C864.508057,299.146881 862.876160,296.323975 874.482178,296.491058 
	C887.477844,296.678101 900.478638,296.517670 913.477173,296.508881 
	C915.261047,296.507660 917.044922,296.508759 919.209167,296.508759 
	C919.209167,302.569794 919.209167,308.031433 919.208374,313.988739 
z"/>
<path fill="#D5DCE6" opacity="1.000000" stroke="none" 
	d="
M262.002075,209.042969 
	C261.486328,205.381516 263.936493,205.631439 266.361877,205.635315 
	C285.614990,205.665985 304.868195,205.673019 324.121307,205.640686 
	C327.099548,205.635681 330.077362,205.393021 333.930054,205.383484 
	C339.112213,205.463181 343.419678,205.419632 348.088989,205.553650 
	C348.701874,205.826141 348.952911,205.921082 349.172821,206.360794 
	C349.303772,207.827454 349.465851,208.949326 349.555084,210.473572 
	C349.368500,217.194550 349.196320,223.512787 349.156189,229.831833 
	C349.108185,237.389359 349.157074,237.389664 341.625488,237.885223 
	C340.183350,237.829514 339.129181,237.862274 337.606171,237.824127 
	C322.932587,237.753189 308.727844,237.753189 294.412964,237.753189 
	C294.412964,242.526672 294.412964,246.569260 294.412964,251.168274 
	C308.505920,251.168274 322.253662,251.168274 336.088501,251.614227 
	C336.316742,258.381805 336.667725,264.708466 336.516785,271.023132 
	C336.432251,274.558716 335.515839,278.074402 334.513306,281.553345 
	C330.612549,281.573242 327.172821,281.638824 323.387634,281.602875 
	C322.093964,281.590912 321.145660,281.680481 319.726685,281.661713 
	C312.112671,281.515564 304.965393,281.346527 297.829773,281.562073 
	C296.559875,281.600433 294.376038,283.131134 294.265045,284.152222 
	C293.841858,288.044495 294.094269,292.010193 294.094269,296.464020 
	C303.058258,296.464020 311.490356,296.464020 320.245056,296.579041 
	C321.019470,296.625916 321.471252,296.557770 322.357208,296.548828 
	C323.650574,296.479828 324.509796,296.351593 325.791412,296.311768 
	C329.421906,296.452209 332.629944,296.504272 336.284668,296.676697 
	C338.265808,296.656464 339.800323,296.515839 341.769348,296.446594 
	C344.327515,296.517914 346.451172,296.517914 348.863983,296.517914 
	C348.863983,307.679871 348.863983,318.271515 348.503448,328.790771 
	C347.421753,328.813385 346.700623,328.908356 345.531921,328.894897 
	C341.706879,328.838928 338.329437,328.891418 334.515869,328.846130 
	C331.988220,328.873596 329.896698,328.998871 327.805145,329.124115 
	C321.865295,328.938385 315.926270,328.631409 309.985443,328.590515 
	C294.434662,328.483490 278.883148,328.492645 262.892883,327.873291 
	C262.459229,289.517975 262.470428,251.744858 262.450012,213.971756 
	C262.449127,212.328735 262.157990,210.685898 262.002075,209.042969 
z"/>
<path fill="#807879" opacity="1.000000" stroke="none" 
	d="
M327.795166,329.530884 
	C329.896698,328.998871 331.988220,328.873596 334.622009,329.197235 
	C339.757233,339.430817 343.698700,349.589081 349.057678,358.934509 
	C370.588593,396.481842 400.758698,424.761566 441.020508,441.364899 
	C474.298889,455.088440 508.878967,460.595612 544.672424,454.319244 
	C592.520264,445.929199 632.090576,423.044617 662.374023,384.901825 
	C675.701599,368.115356 686.158264,349.587463 692.236938,328.835083 
	C695.556824,328.830780 698.876648,328.826447 702.644653,328.943054 
	C700.928650,335.509003 699.328247,342.212219 696.512878,348.358887 
	C669.930969,406.392456 626.733093,446.280579 564.466675,461.684143 
	C488.273041,480.532959 422.179779,460.112030 368.076080,403.151337 
	C349.628052,383.729126 337.024139,360.391083 328.830048,334.803741 
	C328.326508,333.231445 328.126495,331.561920 327.795166,329.530884 
z"/>
<path fill="#313F5E" opacity="1.000000" stroke="none" 
	d="
M347.727142,205.376099 
	C343.419678,205.419632 339.112213,205.463181 334.388489,205.284088 
	C333.972260,205.061432 333.983856,204.612534 334.188293,204.178085 
	C340.615234,191.509567 346.837738,179.275513 353.277710,166.787689 
	C366.628479,146.086609 383.208527,128.854248 403.143799,115.081772 
	C440.172455,89.500206 481.107452,77.576569 526.284729,80.824104 
	C547.415649,82.343079 567.886169,86.468903 587.244324,95.142075 
	C625.937012,112.477821 656.662476,138.982651 677.713623,175.976685 
	C683.020142,185.302063 686.538330,195.645050 690.878296,205.520416 
	C688.958984,205.474701 687.039734,205.428970 684.650391,204.947815 
	C679.803711,191.183228 673.670654,178.675095 665.731323,167.152283 
	C661.708374,161.313629 656.784668,156.095673 652.128784,150.302521 
	C644.493164,142.735275 637.315430,135.093872 629.424866,128.277695 
	C618.047363,118.449326 605.234253,110.721657 591.070740,104.686623 
	C590.207397,104.261360 589.616577,104.012291 588.682495,103.715179 
	C587.900574,103.783989 587.461792,103.900833 587.009399,104.014000 
	C586.995667,104.010323 586.976746,103.989159 587.037842,103.777550 
	C587.025085,103.246399 586.829895,103.043915 586.309448,102.716629 
	C585.744812,102.260574 585.384094,102.046394 584.796265,101.675095 
	C584.047791,101.346733 583.526367,101.175499 582.727661,100.784134 
	C577.919250,99.114845 573.388123,97.665695 568.502197,96.120041 
	C567.419006,96.009430 566.690674,95.995331 565.983521,95.986053 
	C566.004761,95.990875 566.042053,96.013397 565.791382,95.736397 
	C528.181458,85.045906 491.308228,86.793648 454.512848,99.917236 
	C424.303802,111.214272 398.693695,128.524460 378.122131,153.044571 
	C364.963501,168.728912 354.448395,185.951447 347.727142,205.376099 
z"/>
<path fill="#7F7677" opacity="1.000000" stroke="none" 
	d="
M691.339294,205.601440 
	C686.538330,195.645050 683.020142,185.302063 677.713623,175.976685 
	C656.662476,138.982651 625.937012,112.477821 587.244324,95.142075 
	C567.886169,86.468903 547.415649,82.343079 526.284729,80.824104 
	C481.107452,77.576569 440.172455,89.500206 403.143799,115.081772 
	C383.208527,128.854248 366.628479,146.086609 353.038788,166.566528 
	C352.296417,166.270874 352.010376,165.942612 351.724335,165.614349 
	C366.047638,140.915466 385.705292,121.406227 409.482208,105.797409 
	C451.214569,78.401398 497.087646,68.336220 545.965637,76.393944 
	C617.994202,88.268097 667.958252,129.555740 697.758240,195.784210 
	C699.052551,198.660797 699.949158,201.716354 701.161133,205.011230 
	C698.127563,205.450073 694.963928,205.566269 691.339294,205.601440 
z"/>
<path fill="#7E7575" opacity="1.000000" stroke="none" 
	d="
M623.289185,447.204956 
	C612.662476,453.000061 602.371582,459.552673 591.343506,464.442749 
	C562.714417,477.137421 532.430481,482.307800 501.247406,480.692169 
	C474.748016,479.319214 449.172607,473.615784 425.930908,459.945923 
	C425.229370,459.533295 424.583038,459.026733 423.910980,458.563965 
	C424.027008,458.125641 424.143066,457.687317 424.259094,457.248993 
	C427.216705,458.014862 430.158875,458.847687 433.134491,459.535645 
	C451.423431,463.764191 469.556274,468.986511 488.050873,471.935089 
	C518.672302,476.817047 548.918213,472.779175 578.140137,463.043427 
	C592.565674,458.237274 606.199585,451.055206 620.698059,445.204224 
	C621.899353,446.041840 622.594238,446.623383 623.289185,447.204956 
z"/>
<path fill="#7E7C85" opacity="1.000000" stroke="none" 
	d="
M261.828003,209.406860 
	C262.157990,210.685898 262.449127,212.328735 262.450012,213.971756 
	C262.470428,251.744858 262.459229,289.517975 262.450195,327.776428 
	C262.061371,326.881378 261.341675,325.501343 261.339935,324.120422 
	C261.292999,286.827576 261.317596,249.534622 261.347198,212.241699 
	C261.347870,211.417953 261.547272,210.594391 261.828003,209.406860 
z"/>
<path fill="#907D79" opacity="1.000000" stroke="none" 
	d="
M623.601624,447.084015 
	C622.594238,446.623383 621.899353,446.041840 621.054565,445.147400 
	C636.086670,435.423676 650.080383,424.501282 662.606445,411.756256 
	C666.827026,407.461914 670.776306,402.901062 675.349792,398.975525 
	C661.511780,418.485138 643.865479,433.953339 623.601624,447.084015 
z"/>
<path fill="#797171" opacity="1.000000" stroke="none" 
	d="
M351.456726,165.817078 
	C352.010376,165.942612 352.296417,166.270874 352.821350,166.820297 
	C346.837738,179.275513 340.615234,191.509567 334.195709,204.066071 
	C333.844177,203.450272 333.259399,202.302460 333.599182,201.605072 
	C339.394531,189.710205 345.304413,177.871140 351.456726,165.817078 
z"/>
<path fill="#848591" opacity="1.000000" stroke="none" 
	d="
M720.427246,295.059570 
	C723.823914,302.297607 727.182068,309.909790 730.497803,317.890320 
	C727.099792,310.650391 723.744263,303.042084 720.427246,295.059570 
z"/>
<path fill="#595769" opacity="1.000000" stroke="none" 
	d="
M679.016296,394.013916 
	C682.038452,389.147217 685.060608,384.280518 688.082764,379.413818 
	C688.702881,379.856415 689.322998,380.299042 689.943115,380.741638 
	C686.510559,385.100616 683.078003,389.459564 679.322998,393.909363 
	C679.000488,394.000183 679.016296,394.013916 679.016296,394.013916 
z"/>
<path fill="#848591" opacity="1.000000" stroke="none" 
	d="
M714.640625,285.106018 
	C714.208801,284.074219 714.097351,282.960754 713.837402,280.364197 
	C715.173462,282.401123 715.722961,283.238861 716.251831,284.372772 
	C715.807739,284.787415 715.384399,284.905853 714.640625,285.106018 
z"/>
<path fill="#595769" opacity="1.000000" stroke="none" 
	d="
M678.993347,393.992676 
	C678.592407,394.851807 678.198547,395.718475 677.804749,396.585114 
	C677.456543,396.363647 677.108337,396.142212 676.760071,395.920746 
	C677.321472,395.331604 677.882812,394.742462 678.730225,394.083618 
	C679.016296,394.013916 679.000488,394.000183 678.993347,393.992676 
z"/>
<path fill="#848591" opacity="1.000000" stroke="none" 
	d="
M733.532104,325.957336 
	C733.966492,326.275208 734.366333,326.902283 734.814819,327.812683 
	C734.408203,327.486206 733.952881,326.876404 733.532104,325.957336 
z"/>
<path fill="#848591" opacity="1.000000" stroke="none" 
	d="
M731.476074,320.971802 
	C731.924683,321.325592 732.309937,321.976349 732.672119,322.919861 
	C732.236938,322.564697 731.824829,321.916748 731.476074,320.971802 
z"/>
<path fill="#595769" opacity="1.000000" stroke="none" 
	d="
M691.499878,376.498169 
	C691.486267,376.500671 691.513428,376.495636 691.499878,376.498169 
z"/>
<path fill="#303E5D" opacity="1.000000" stroke="none" 
	d="
M691.776123,328.755981 
	C686.158264,349.587463 675.701599,368.115356 662.374023,384.901825 
	C632.090576,423.044617 592.520264,445.929199 544.672424,454.319244 
	C508.878967,460.595612 474.298889,455.088440 441.020508,441.364899 
	C400.758698,424.761566 370.588593,396.481842 349.057678,358.934509 
	C343.698700,349.589081 339.757233,339.430817 335.058105,329.295044 
	C338.329437,328.891418 341.706879,328.838928 345.577911,329.271423 
	C346.128967,330.083527 346.139862,330.427368 346.250610,330.735321 
	C362.485748,375.882294 392.832245,408.551483 434.883453,430.824615 
	C436.059845,431.447693 437.647186,431.294891 439.031708,431.097382 
	C438.680115,430.276062 438.339691,429.861237 437.833496,429.184631 
	C436.697937,428.287872 435.771149,427.571960 434.752045,427.029572 
	C401.723175,409.450348 376.648163,383.938324 359.192169,350.938202 
	C355.398132,343.765686 352.288696,336.231018 348.863983,328.863159 
	C348.863983,318.271515 348.863983,307.679871 348.863983,296.517914 
	C346.451172,296.517914 344.327515,296.517914 341.692688,296.036133 
	C338.905853,276.323883 338.923431,257.126587 342.013489,237.973679 
	C349.157074,237.389664 349.108185,237.389359 349.156189,229.831833 
	C349.196320,223.512787 349.368500,217.194550 349.792938,210.224518 
	C350.288452,208.684097 350.473236,207.795135 350.855896,206.601700 
	C368.997467,162.469055 398.866760,129.664215 441.443695,108.657402 
	C446.494904,106.165222 451.741180,104.068443 457.261780,101.747833 
	C479.330566,94.280167 501.600769,90.059570 524.579590,91.312752 
	C535.981323,91.934555 547.311462,93.870422 558.940918,95.359390 
	C559.795166,95.626884 560.382507,95.746788 561.389648,95.964722 
	C563.220337,96.046303 564.631165,96.029854 566.042053,96.013397 
	C566.042053,96.013397 566.004761,95.990875 566.067078,96.275742 
	C566.655151,96.837128 567.180969,97.113640 567.940918,97.644836 
	C572.804260,99.534935 577.433472,101.170341 582.389526,102.972717 
	C584.136536,103.422844 585.556641,103.706001 586.976746,103.989159 
	C586.976746,103.989159 586.995667,104.010323 587.115967,104.283844 
	C587.762878,104.766380 588.289551,104.975395 588.791504,105.199753 
	C588.766785,105.215088 588.768372,105.273193 589.023438,105.505402 
	C606.799377,113.552246 622.766174,123.609009 635.718079,137.995850 
	C640.502502,143.310410 645.238464,148.668655 650.145752,154.310028 
	C663.368958,172.496155 673.454834,191.884079 679.800781,213.588196 
	C681.607178,254.935883 685.207397,295.923309 675.281372,336.440613 
	C675.662231,336.693085 676.043091,336.945557 676.423950,337.198029 
	C678.639893,334.328461 680.855835,331.458893 683.071777,328.589355 
	C685.819641,328.618530 688.567444,328.647705 691.776123,328.755981 
M618.408630,417.962311 
	C617.898499,418.284241 617.388428,418.606201 616.878296,418.928131 
	C617.041626,419.132507 617.204956,419.336853 617.368225,419.541199 
	C617.932007,419.042450 618.495728,418.543671 619.165955,417.958679 
	C619.165955,417.958679 619.139526,417.757690 619.139526,417.757690 
	C619.139526,417.757690 618.943787,417.926636 618.408630,417.962311 
M439.625244,431.465179 
	C440.904297,432.619019 441.991394,434.248901 443.491760,434.853851 
	C460.417999,441.678436 477.684113,447.305542 496.726593,449.279999 
	C522.429016,452.794922 547.607239,450.446594 572.036804,441.782623 
	C581.398193,438.462585 590.353271,433.996613 600.135681,429.993347 
	C603.242676,428.236206 606.349670,426.479065 609.456665,424.721954 
	C609.112915,424.157745 608.769104,423.593567 608.425354,423.029388 
	C604.890381,425.253906 601.355347,427.478424 597.106201,429.881836 
	C596.176880,430.244659 595.211426,430.535583 594.323486,430.980865 
	C574.979248,440.681488 554.221680,445.391449 532.882385,447.070404 
	C520.674377,448.030914 508.313263,447.045837 495.388947,446.709595 
	C490.492004,445.784729 485.455872,445.310455 480.724640,443.849030 
	C467.465942,439.753571 454.333191,435.250519 440.870880,430.659088 
	C440.536804,430.672150 440.202698,430.685211 439.625244,431.465179 
M403.736359,328.569305 
	C405.702393,327.014191 408.153534,325.805115 409.551727,323.844971 
	C416.091980,314.676025 422.342010,305.300049 428.956238,295.616699 
	C429.990509,296.912750 430.745117,297.743103 431.371338,298.661011 
	C437.284332,307.328217 443.304413,315.926971 448.999634,324.735504 
	C450.874329,327.635010 452.996796,328.692017 456.351868,328.624176 
	C465.011353,328.449036 473.676910,328.575439 482.340057,328.580658 
	C484.757477,328.582092 487.174927,328.580841 490.408936,328.580841 
	C489.108002,326.395630 488.430206,325.107788 487.616394,323.912537 
	C475.431366,306.016479 463.308990,288.076569 450.948181,270.302551 
	C448.954712,267.436188 449.110748,265.553345 450.992798,262.839203 
	C461.716248,247.374924 472.266266,231.790482 482.888794,216.256104 
	C485.089264,213.038132 487.346771,209.859131 490.245850,205.705246 
	C476.894318,205.705246 464.781586,205.637726 452.672577,205.817490 
	C451.553680,205.834091 450.167084,207.220901 449.399994,208.317795 
	C445.105621,214.458496 440.973511,220.712433 436.765533,226.913849 
	C434.384674,230.422592 431.964722,233.904816 429.301300,237.778717 
	C428.216553,236.543106 427.626740,235.995987 427.184143,235.348282 
	C421.265137,226.686874 415.276764,218.070496 409.517609,209.303665 
	C407.776398,206.653152 405.879639,205.508316 402.622375,205.583862 
	C393.298065,205.800140 383.965149,205.645676 374.635620,205.637680 
	C372.727905,205.636047 370.820190,205.637451 368.120697,205.637451 
	C369.368683,207.690491 369.991455,208.831223 370.721436,209.898605 
	C382.755524,227.494537 394.725555,245.135345 406.922607,262.617737 
	C408.995178,265.588348 408.979614,267.583893 406.899384,270.500854 
	C401.003052,278.768951 395.467743,287.294098 389.769958,295.704285 
	C382.548157,306.363953 375.306366,317.010071 367.455505,328.571625 
	C379.975128,328.571625 391.424652,328.571625 403.736359,328.569305 
M535.672424,310.497070 
	C535.672424,316.423584 535.672424,322.350067 535.672424,328.578094 
	C545.256897,328.578094 554.082092,328.377686 562.891174,328.666626 
	C567.005798,328.801605 567.865784,327.260620 567.847168,323.463593 
	C567.717102,296.977905 567.932007,270.489960 567.692017,244.005859 
	C567.646851,239.014664 568.799622,237.306839 574.002747,237.575912 
	C582.754944,238.028519 591.547424,237.699875 600.597778,237.699875 
	C600.597778,226.780884 600.597778,216.523438 600.597778,205.983215 
	C567.981445,205.983215 535.437134,205.983215 502.932495,205.983215 
	C502.932495,216.592255 502.932495,226.843887 502.932495,237.834167 
	C513.940186,237.834167 524.651672,237.834167 535.673889,237.834167 
	C535.673889,262.216888 535.673889,285.857513 535.672424,310.497070 
M624.249817,223.502274 
	C624.249817,258.367767 624.249817,293.233246 624.249817,328.052917 
	C635.389648,328.052917 645.735718,328.052917 655.946045,328.052917 
	C655.946045,287.006287 655.946045,246.490311 655.946045,205.902802 
	C645.295898,205.902802 635.035095,205.902802 624.250000,205.902802 
	C624.250000,211.616821 624.250000,217.060257 624.249817,223.502274 
M614.154724,421.413788 
	C613.390442,421.329346 612.626160,421.244904 611.861877,421.160431 
	C611.903259,421.585175 611.944702,422.009918 611.986145,422.434662 
	C612.620178,422.225739 613.254211,422.016815 614.154724,421.413788 
M621.489624,416.526062 
	C621.489624,416.526062 621.469421,416.479095 621.489624,416.526062 
z"/>
<path fill="#7F7677" opacity="1.000000" stroke="none" 
	d="
M679.781982,213.164948 
	C673.454834,191.884079 663.368958,172.496155 650.265381,153.993469 
	C650.913269,152.448273 651.590759,151.522659 652.268250,150.597076 
	C656.784668,156.095673 661.708374,161.313629 665.731323,167.152283 
	C673.670654,178.675095 679.803711,191.183228 684.252441,204.840942 
	C684.041992,205.311035 683.759583,205.452545 682.755859,205.957123 
	C681.283691,208.601761 680.532837,210.883347 679.781982,213.164948 
z"/>
<path fill="#848591" opacity="1.000000" stroke="none" 
	d="
M679.800781,213.588196 
	C680.532837,210.883347 681.283691,208.601761 682.309814,206.117035 
	C682.599915,244.522781 682.610535,283.131683 682.641602,321.740570 
	C682.643188,323.732056 682.819763,325.723450 682.993347,328.152100 
	C680.855835,331.458893 678.639893,334.328461 676.423950,337.198029 
	C676.043091,336.945557 675.662231,336.693085 675.281372,336.440613 
	C685.207397,295.923309 681.607178,254.935883 679.800781,213.588196 
z"/>
<path fill="#7D757A" opacity="1.000000" stroke="none" 
	d="
M456.897034,101.788376 
	C451.741180,104.068443 446.494904,106.165222 441.443695,108.657402 
	C398.866760,129.664215 368.997467,162.469055 350.677307,206.487671 
	C349.935211,206.457397 349.569580,206.236710 349.203979,206.016006 
	C348.952911,205.921082 348.701874,205.826141 348.088989,205.553650 
	C354.448395,185.951447 364.963501,168.728912 378.122131,153.044571 
	C398.693695,128.524460 424.303802,111.214272 454.706573,100.119980 
	C455.816040,100.786957 456.356537,101.287666 456.897034,101.788376 
z"/>
<path fill="#313F5E" opacity="1.000000" stroke="none" 
	d="
M336.001434,251.168274 
	C322.253662,251.168274 308.505920,251.168274 294.412964,251.168274 
	C294.412964,246.569260 294.412964,242.526672 294.412964,237.753189 
	C308.727844,237.753189 322.932587,237.753189 337.639160,238.261444 
	C337.427826,242.902557 336.714630,247.035416 336.001434,251.168274 
z"/>
<path fill="#797171" opacity="1.000000" stroke="none" 
	d="
M439.042908,431.503876 
	C437.647186,431.294891 436.059845,431.447693 434.883453,430.824615 
	C392.832245,408.551483 362.485748,375.882294 346.250610,330.735321 
	C346.139862,330.427368 346.128967,330.083527 346.025452,329.379883 
	C346.700623,328.908356 347.421753,328.813385 348.503448,328.790771 
	C352.288696,336.231018 355.398132,343.765686 359.192169,350.938202 
	C376.648163,383.938324 401.723175,409.450348 434.752045,427.029572 
	C435.771149,427.571960 436.697937,428.287872 438.001831,429.531006 
	C438.571594,430.594055 438.807251,431.048981 439.042908,431.503876 
z"/>
<path fill="#2F3D5D" opacity="1.000000" stroke="none" 
	d="
M319.922455,296.464020 
	C311.490356,296.464020 303.058258,296.464020 294.094269,296.464020 
	C294.094269,292.010193 293.841858,288.044495 294.265045,284.152222 
	C294.376038,283.131134 296.559875,281.600433 297.829773,281.562073 
	C304.965393,281.346527 312.112671,281.515564 319.730652,282.140564 
	C320.111053,287.306488 320.016754,291.885254 319.922455,296.464020 
z"/>
<path fill="#7E7C85" opacity="1.000000" stroke="none" 
	d="
M336.088501,251.614227 
	C336.714630,247.035416 337.427826,242.902557 338.108002,238.332367 
	C339.129181,237.862274 340.183350,237.829514 341.625488,237.885223 
	C338.923431,257.126587 338.905853,276.323883 341.258179,295.964783 
	C339.800323,296.515839 338.265808,296.656464 336.355652,296.250916 
	C335.644714,291.002838 335.309479,286.300934 334.974274,281.599060 
	C335.515839,278.074402 336.432251,274.558716 336.516785,271.023132 
	C336.667725,264.708466 336.316742,258.381805 336.088501,251.614227 
z"/>
<path fill="#303E5D" opacity="1.000000" stroke="none" 
	d="
M334.513306,281.553345 
	C335.309479,286.300934 335.644714,291.002838 335.908997,296.130524 
	C332.629944,296.504272 329.421906,296.452209 325.737854,295.992371 
	C324.804993,292.725983 324.348083,289.867432 324.014526,286.711670 
	C324.002960,284.844482 323.868011,283.274475 323.733063,281.704437 
	C327.172821,281.638824 330.612549,281.573242 334.513306,281.553345 
z"/>
<path fill="#797171" opacity="1.000000" stroke="none" 
	d="
M323.387634,281.602875 
	C323.868011,283.274475 324.002960,284.844482 323.715393,286.914368 
	C322.836243,290.439331 322.379639,293.464508 321.923035,296.489655 
	C321.471252,296.557770 321.019470,296.625916 320.245056,296.579041 
	C320.016754,291.885254 320.111053,287.306488 320.201355,282.248901 
	C321.145660,281.680481 322.093964,281.590912 323.387634,281.602875 
z"/>
<path fill="#7E7C85" opacity="1.000000" stroke="none" 
	d="
M322.357208,296.548828 
	C322.379639,293.464508 322.836243,290.439331 323.591980,287.211517 
	C324.348083,289.867432 324.804993,292.725983 325.315430,295.903961 
	C324.509796,296.351593 323.650574,296.479828 322.357208,296.548828 
z"/>
<path fill="#7E7C85" opacity="1.000000" stroke="none" 
	d="
M349.172821,206.360794 
	C349.569580,206.236710 349.935211,206.457397 350.479431,206.792130 
	C350.473236,207.795135 350.288452,208.684097 349.865814,209.822144 
	C349.465851,208.949326 349.303772,207.827454 349.172821,206.360794 
z"/>
<path fill="#907D79" opacity="1.000000" stroke="none" 
	d="
M457.261780,101.747833 
	C456.356537,101.287666 455.816040,100.786957 455.081818,100.083504 
	C491.308228,86.793648 528.181458,85.045906 565.791382,95.736397 
	C564.631165,96.029854 563.220337,96.046303 561.130981,95.810341 
	C559.859680,95.442558 559.266785,95.327187 558.673950,95.211807 
	C547.311462,93.870422 535.981323,91.934555 524.579590,91.312752 
	C501.600769,90.059570 479.330566,94.280167 457.261780,101.747833 
z"/>
<path fill="#7D7272" opacity="1.000000" stroke="none" 
	d="
M652.128784,150.302521 
	C651.590759,151.522659 650.913269,152.448273 650.116150,153.690430 
	C645.238464,148.668655 640.502502,143.310410 635.718079,137.995850 
	C622.766174,123.609009 606.799377,113.552246 589.451172,105.427170 
	C590.196899,105.032089 590.770081,104.947456 591.343262,104.862823 
	C605.234253,110.721657 618.047363,118.449326 629.424866,128.277695 
	C637.315430,135.093872 644.493164,142.735275 652.128784,150.302521 
z"/>
<path fill="#797171" opacity="1.000000" stroke="none" 
	d="
M582.062622,102.805740 
	C577.433472,101.170341 572.804260,99.534935 568.132080,97.444962 
	C568.344971,96.732445 568.601013,96.474495 568.856995,96.216553 
	C573.388123,97.665695 577.919250,99.114845 582.612610,101.011276 
	C582.537415,101.907608 582.299988,102.356674 582.062622,102.805740 
z"/>
<path fill="#7D7272" opacity="1.000000" stroke="none" 
	d="
M582.389526,102.972717 
	C582.299988,102.356674 582.537415,101.907608 582.889893,101.231407 
	C583.526367,101.175499 584.047791,101.346733 585.021851,101.891678 
	C585.820679,102.496429 586.166992,102.727470 586.513306,102.958511 
	C586.829895,103.043915 587.025085,103.246399 587.037842,103.777550 
	C585.556641,103.706001 584.136536,103.422844 582.389526,102.972717 
z"/>
<path fill="#907D79" opacity="1.000000" stroke="none" 
	d="
M568.502197,96.120041 
	C568.601013,96.474495 568.344971,96.732445 567.897827,97.190269 
	C567.180969,97.113640 566.655151,96.837128 566.045837,96.270920 
	C566.690674,95.995331 567.419006,96.009430 568.502197,96.120041 
z"/>
<path fill="#797171" opacity="1.000000" stroke="none" 
	d="
M591.070740,104.686615 
	C590.770081,104.947456 590.196899,105.032089 589.196045,105.194962 
	C588.768372,105.273193 588.766785,105.215088 588.851440,104.844757 
	C588.966003,104.237358 588.995911,104.000298 589.025757,103.763229 
	C589.616577,104.012291 590.207397,104.261360 591.070740,104.686615 
z"/>
<path fill="#7D7272" opacity="1.000000" stroke="none" 
	d="
M588.682495,103.715187 
	C588.995911,104.000298 588.966003,104.237358 588.876099,104.829414 
	C588.289551,104.975395 587.762878,104.766380 587.129639,104.287521 
	C587.461792,103.900833 587.900574,103.783989 588.682495,103.715187 
z"/>
<path fill="#797171" opacity="1.000000" stroke="none" 
	d="
M586.309448,102.716629 
	C586.166992,102.727470 585.820679,102.496429 585.248840,102.048798 
	C585.384094,102.046394 585.744812,102.260574 586.309448,102.716629 
z"/>
<path fill="#D5DCE6" opacity="1.000000" stroke="none" 
	d="
M403.305298,328.570465 
	C391.424652,328.571625 379.975128,328.571625 367.455505,328.571625 
	C375.306366,317.010071 382.548157,306.363953 389.769958,295.704285 
	C395.467743,287.294098 401.003052,278.768951 406.899384,270.500854 
	C408.979614,267.583893 408.995178,265.588348 406.922607,262.617737 
	C394.725555,245.135345 382.755524,227.494537 370.721436,209.898605 
	C369.991455,208.831223 369.368683,207.690491 368.120697,205.637451 
	C370.820190,205.637451 372.727905,205.636047 374.635620,205.637680 
	C383.965149,205.645676 393.298065,205.800140 402.622375,205.583862 
	C405.879639,205.508316 407.776398,206.653152 409.517609,209.303665 
	C415.276764,218.070496 421.265137,226.686874 427.184143,235.348282 
	C427.626740,235.995987 428.216553,236.543106 429.301300,237.778717 
	C431.964722,233.904816 434.384674,230.422592 436.765533,226.913849 
	C440.973511,220.712433 445.105621,214.458496 449.399994,208.317795 
	C450.167084,207.220901 451.553680,205.834091 452.672577,205.817490 
	C464.781586,205.637726 476.894318,205.705246 490.245850,205.705246 
	C487.346771,209.859131 485.089264,213.038132 482.888794,216.256104 
	C472.266266,231.790482 461.716248,247.374924 450.992798,262.839203 
	C449.110748,265.553345 448.954712,267.436188 450.948181,270.302551 
	C463.308990,288.076569 475.431366,306.016479 487.616394,323.912537 
	C488.430206,325.107788 489.108002,326.395630 490.408936,328.580841 
	C487.174927,328.580841 484.757477,328.582092 482.340057,328.580658 
	C473.676910,328.575439 465.011353,328.449036 456.351868,328.624176 
	C452.996796,328.692017 450.874329,327.635010 448.999634,324.735504 
	C443.304413,315.926971 437.284332,307.328217 431.371338,298.661011 
	C430.745117,297.743103 429.990509,296.912750 428.956238,295.616699 
	C422.342010,305.300049 416.091980,314.676025 409.551727,323.844971 
	C408.153534,325.805115 405.702393,327.014191 403.305298,328.570465 
z"/>
<path fill="#D5DCE6" opacity="1.000000" stroke="none" 
	d="
M535.673157,309.997620 
	C535.673889,285.857513 535.673889,262.216888 535.673889,237.834167 
	C524.651672,237.834167 513.940186,237.834167 502.932495,237.834167 
	C502.932495,226.843887 502.932495,216.592255 502.932495,205.983215 
	C535.437134,205.983215 567.981445,205.983215 600.597778,205.983215 
	C600.597778,216.523438 600.597778,226.780884 600.597778,237.699875 
	C591.547424,237.699875 582.754944,238.028519 574.002747,237.575912 
	C568.799622,237.306839 567.646851,239.014664 567.692017,244.005859 
	C567.932007,270.489960 567.717102,296.977905 567.847168,323.463593 
	C567.865784,327.260620 567.005798,328.801605 562.891174,328.666626 
	C554.082092,328.377686 545.256897,328.578094 535.672424,328.578094 
	C535.672424,322.350067 535.672424,316.423584 535.673157,309.997620 
z"/>
<path fill="#D4DBE6" opacity="1.000000" stroke="none" 
	d="
M624.249878,223.002991 
	C624.250000,217.060257 624.250000,211.616821 624.250000,205.902802 
	C635.035095,205.902802 645.295898,205.902802 655.946045,205.902802 
	C655.946045,246.490311 655.946045,287.006287 655.946045,328.052917 
	C645.735718,328.052917 635.389648,328.052917 624.249817,328.052917 
	C624.249817,293.233246 624.249817,258.367767 624.249878,223.002991 
z"/>
<path fill="#7D7272" opacity="1.000000" stroke="none" 
	d="
M496.021088,446.936737 
	C508.313263,447.045837 520.674377,448.030914 532.882385,447.070404 
	C554.221680,445.391449 574.979248,440.681488 594.323486,430.980865 
	C595.211426,430.535583 596.176880,430.244659 597.878540,429.897491 
	C598.931763,429.959686 599.212646,430.006256 599.493469,430.052795 
	C590.353271,433.996613 581.398193,438.462585 572.036804,441.782623 
	C547.607239,450.446594 522.429016,452.794922 496.367004,448.760681 
	C496.011993,447.806488 496.016541,447.371613 496.021088,446.936737 
z"/>
<path fill="#907D79" opacity="1.000000" stroke="none" 
	d="
M495.705017,446.823181 
	C496.016541,447.371613 496.011993,447.806488 496.012695,448.566986 
	C477.684113,447.305542 460.417999,441.678436 443.491760,434.853851 
	C441.991394,434.248901 440.904297,432.619019 440.063904,431.154358 
	C440.718597,430.865143 440.934662,430.886719 441.150726,430.908264 
	C454.333191,435.250519 467.465942,439.753571 480.724640,443.849030 
	C485.455872,445.310455 490.492004,445.784729 495.705017,446.823181 
z"/>
<path fill="#595769" opacity="1.000000" stroke="none" 
	d="
M599.814575,430.023071 
	C599.212646,430.006256 598.931763,429.959686 598.235596,429.808044 
	C601.355347,427.478424 604.890381,425.253906 608.425354,423.029388 
	C608.769104,423.593567 609.112915,424.157745 609.456665,424.721954 
	C606.349670,426.479065 603.242676,428.236206 599.814575,430.023071 
z"/>
<path fill="#595769" opacity="1.000000" stroke="none" 
	d="
M614.021484,421.610840 
	C613.254211,422.016815 612.620178,422.225739 611.986145,422.434662 
	C611.944702,422.009918 611.903259,421.585175 611.861877,421.160431 
	C612.626160,421.244904 613.390442,421.329346 614.021484,421.610840 
z"/>
<path fill="#595769" opacity="1.000000" stroke="none" 
	d="
M619.059509,418.044922 
	C618.495728,418.543671 617.932007,419.042450 617.368225,419.541199 
	C617.204956,419.336853 617.041626,419.132507 616.878296,418.928131 
	C617.388428,418.606201 617.898499,418.284241 618.704224,417.974976 
	C618.999756,417.987610 619.059509,418.044922 619.059509,418.044922 
z"/>
<path fill="#797171" opacity="1.000000" stroke="none" 
	d="
M558.940918,95.359390 
	C559.266785,95.327187 559.859680,95.442558 560.711182,95.712311 
	C560.382507,95.746788 559.795166,95.626884 558.940918,95.359390 
z"/>
<path fill="#595769" opacity="1.000000" stroke="none" 
	d="
M621.479492,416.502563 
	C621.469421,416.479095 621.489624,416.526062 621.479492,416.502563 
z"/>
<path fill="#595769" opacity="1.000000" stroke="none" 
	d="
M618.971802,417.957123 
	C618.943787,417.926636 619.139526,417.757690 619.139526,417.757690 
	C619.139526,417.757690 619.165955,417.958679 619.112732,418.001801 
	C619.059509,418.044922 618.999756,417.987610 618.971802,417.957123 
z"/>
<path fill="#907D79" opacity="1.000000" stroke="none" 
	d="
M439.031708,431.097382 
	C438.807251,431.048981 438.571594,430.594055 438.167603,429.792786 
	C438.339691,429.861237 438.680115,430.276062 439.031708,431.097382 
z"/>
<path fill="#797171" opacity="1.000000" stroke="none" 
	d="
M441.010803,430.783691 
	C440.934662,430.886719 440.718597,430.865143 440.185577,430.770905 
	C440.202698,430.685211 440.536804,430.672150 441.010803,430.783691 
z"/>
</svg>